#N canvas 1339 278 870 380 10;
#X floatatom 193 151 5 0 0 0 - - -;
#X msg 137 111 25;
#X msg 222 113 50;
#X msg 265 114 25.3;
#X obj 194 204 print numero;
#X msg 192 44 set 25;
#X obj 25 49;
#X msg 334 80 13;
#X msg 333 43 set \$1;
#X floatatom 334 113 5 0 0 0 - - -;
#X floatatom 334 9 5 0 0 0 - - -;
#X obj 330 172 bng 15 250 50 0 empty empty empty 17 7 0 10 -262144
-1 -1;
#X msg 526 189 13;
#X floatatom 526 222 5 0 0 0 - - -;
#X symbolatom 531 83 10 0 0 0 - - -;
#X msg 489 42 set uno;
#X msg 549 41 set dos;
#X obj 210 73 bng 15 250 50 0 empty empty empty 17 7 0 10 -262144 -1
-1;
#X text 741 53 Bla bla bla;
#X text 17 9 objeto;
#X text 374 8 numero;
#X text 740 16 comentario;
#X text 609 83 simbolo;
#X text 241 43 ---- set ----;
#X msg 141 46 set 35;
#X text 389 41 ---- set ----;
#X obj 423 173 bang;
#X obj 423 202 print letra;
#X obj 331 203 print icono;
#X text 13 95 mensaje;
#X msg 22 123;
#X text 283 202 print;
#X text 348 171 ---bang---;
#X connect 0 0 4 0;
#X connect 1 0 0 0;
#X connect 2 0 0 0;
#X connect 3 0 0 0;
#X connect 5 0 0 0;
#X connect 5 0 17 0;
#X connect 7 0 9 0;
#X connect 8 0 7 0;
#X connect 8 0 12 0;
#X connect 8 0 26 0;
#X connect 10 0 8 0;
#X connect 11 0 28 0;
#X connect 12 0 13 0;
#X connect 15 0 14 0;
#X connect 16 0 14 0;
#X connect 17 0 0 0;
#X connect 24 0 0 0;
#X connect 26 0 27 0;
#X connect 26 0 12 0;
